<?xml version="1.0" encoding="iso-8859-1"?>
<!-- Generator: Adobe Illustrator 19.0.0, SVG Export Plug-In . SVG Version: 6.00 Build 0)  -->
<svg version="1.1" id="Capa_1" xmlns="http://www.w3.org/2000/svg" xmlns:xlink="http://www.w3.org/1999/xlink" x="0px" y="0px"
	 viewBox="0 0 512 512" style="enable-background:new 0 0 512 512;" xml:space="preserve">
<g>
	<path style="fill:#D6505C;" d="M313.47,14.639c-29.659-17.124-56.531-18.714-75.935-7.437L130.808,69.226
		c0.062-0.036,0.125-0.068,0.187-0.103c-19.263,11.086-31.218,34.796-31.314,68.544C99.488,205.392,200.206,496.67,205.507,512
		l106.729-62.023c5.37-9.17,107.401-183.392,107.594-251.117C420.021,131.144,372.402,48.664,313.47,14.639z"/>
	<path style="fill:#D6505C;" d="M313.47,14.639c-29.659-17.124-56.531-18.714-75.934-7.437L130.808,69.226
		c19.403-11.276,46.275-9.686,75.935,7.437c58.931,34.025,106.551,116.503,106.359,184.221
		C312.909,328.61,210.878,502.831,205.508,512l106.727-62.023c5.37-9.17,107.401-183.392,107.594-251.116
		C420.021,131.144,372.402,48.664,313.47,14.639z"/>
</g>
<path style="fill:#BE3E50;" d="M206.743,76.663c58.931,34.025,106.551,116.503,106.359,184.221
	C312.909,328.61,210.878,502.831,205.508,512C200.207,496.67,99.489,205.391,99.682,137.667
	C99.873,69.949,147.804,42.635,206.743,76.663z"/>
<polygon style="fill:#ACABB1;" points="282.378,222.64 209.314,119.221 138.709,136.919 92.17,163.211 162.775,145.513 
	162.775,145.513 92.17,163.211 95.531,170.542 109.467,167.048 109.467,260.474 223.172,326.122 223.172,243.654 223.172,243.654 
	223.172,326.122 262.277,303.995 262.47,235.669 278.987,226.071 "/>
<polygon style="fill:#D8D8DA;" points="223.172,231.939 262.544,209.813 262.277,303.995 223.172,326.122 "/>
<g style="enable-background:new    ;">
	<polygon style="fill:#E0E0E2;" points="92.17,163.211 138.709,136.919 209.314,119.221 162.775,145.513 	"/>
	<polygon style="fill:#C6C5CB;" points="235.839,248.931 282.378,222.64 278.987,226.071 232.448,252.364 	"/>
	<polygon style="fill:#D8D8DA;" points="162.775,145.513 209.314,119.221 282.378,222.64 235.839,248.931 	"/>
	<polygon style="fill:#C6C5CB;" points="235.839,248.931 162.775,145.513 92.17,163.211 95.531,170.542 109.467,167.048 
		109.467,260.474 223.172,326.122 223.172,239.233 232.448,252.364 	"/>
</g>
<g>
</g>
<g>
</g>
<g>
</g>
<g>
</g>
<g>
</g>
<g>
</g>
<g>
</g>
<g>
</g>
<g>
</g>
<g>
</g>
<g>
</g>
<g>
</g>
<g>
</g>
<g>
</g>
<g>
</g>
</svg>
