<?xml version="1.0" encoding="iso-8859-1"?>
<!-- Generator: Adobe Illustrator 19.0.0, SVG Export Plug-In . SVG Version: 6.00 Build 0)  -->
<svg version="1.1" id="Capa_1" xmlns="http://www.w3.org/2000/svg" xmlns:xlink="http://www.w3.org/1999/xlink" x="0px" y="0px"
	 viewBox="0 0 512 512" style="enable-background:new 0 0 512 512;" xml:space="preserve">
<polygon style="fill:#EEBD56;" points="109.831,0 43.334,38.645 43.326,38.639 43.326,38.65 43.326,304.811 43.326,304.822 
	402.168,512 468.674,473.35 468.674,207.178 "/>
<polygon style="fill:#E5AA40;" points="402.168,245.828 468.675,207.178 468.675,473.35 402.168,512 "/>
<polygon style="fill:#FECE00;" points="402.168,245.828 402.168,512 43.325,304.822 402.168,512 43.325,304.822 43.325,38.65 "/>
<polygon style="fill:#F2D07C;" points="402.168,245.817 402.168,511.99 43.325,304.811 402.168,511.99 43.325,304.811 
	43.325,38.639 "/>
<polygon style="fill:#E5AA40;" points="222.481,236.09 402.168,512 43.325,304.822 "/>
<polygon style="fill:#F2D07C;" points="43.325,38.65 109.832,0 468.675,207.178 402.168,245.828 "/>
<g style="enable-background:new    ;">
	<polygon style="fill:#EEBD56;" points="402.168,245.828 208.818,322.592 43.325,38.65 	"/>
</g>
<g>
</g>
<g>
</g>
<g>
</g>
<g>
</g>
<g>
</g>
<g>
</g>
<g>
</g>
<g>
</g>
<g>
</g>
<g>
</g>
<g>
</g>
<g>
</g>
<g>
</g>
<g>
</g>
<g>
</g>
</svg>
