<?xml version="1.0" encoding="iso-8859-1"?>
<!-- Generator: Adobe Illustrator 19.0.0, SVG Export Plug-In . SVG Version: 6.00 Build 0)  -->
<svg version="1.1" id="Capa_1" xmlns="http://www.w3.org/2000/svg" xmlns:xlink="http://www.w3.org/1999/xlink" x="0px" y="0px"
	 viewBox="0 0 512 512" style="enable-background:new 0 0 512 512;" xml:space="preserve">
<g style="enable-background:new    ;">
	<path style="fill:#F18700;" d="M185.088,22.199c-13.044-7.532-34.204-7.527-47.164,0.004c-6.44,3.743-9.664,8.652-9.678,13.568
		v326.261c0.014-4.916,3.238-9.825,9.678-13.568c12.96-7.532,34.119-7.535,47.164-0.004l215.657,124.509v-326.26L185.088,22.199z"/>
	<g>
		<polygon style="fill:#C6C5CB;" points="189.82,45.067 140.367,73.806 140.361,73.801 140.361,373.687 332.936,483.105 
			332.936,483.113 382.395,454.371 382.395,154.485 		"/>
		<polygon style="fill:#D8D8DA;" points="332.936,183.219 332.936,483.105 140.361,373.687 332.936,483.105 140.361,373.687 
			140.361,73.801 		"/>
		<polygon style="fill:#E0E0E2;" points="140.361,73.809 189.82,45.067 382.395,154.485 332.936,183.228 		"/>
		<polygon style="fill:#C6C5CB;" points="332.936,183.228 382.395,154.485 382.395,454.371 332.936,483.113 		"/>
	</g>
	<polygon style="fill:#DC782F;" points="420.892,135 420.892,461.261 400.745,472.97 400.745,146.709 	"/>
	<path id="SVGCleanerId_0" style="fill:#E69555;" d="M117.925,61.23c-12.192-7.039-18.281-16.3-18.255-25.547v326.261
		c-0.026,9.247,6.062,18.508,18.255,25.546l215.657,124.509V185.74L117.925,61.23z"/>
	<polygon style="fill:#DC782F;" points="353.729,174.032 353.729,500.292 333.582,512 333.582,185.74 	"/>
	<path id="SVGCleanerId_1" style="fill:#FFB657;" d="M420.892,135l-20.147,11.708L185.088,22.199
		c-13.044-7.532-34.204-7.527-47.164,0.004s-12.897,19.788,0.147,27.318l215.657,124.509l-20.147,11.708L117.925,61.23
		C93.698,47.243,93.569,24.48,117.64,10.492s63.368-13.988,87.596,0L420.892,135z"/>
	<path style="fill:#F18700;" d="M205.236,10.491c-24.228-13.988-63.526-13.988-87.596,0c-11.996,6.971-17.978,16.123-17.966,25.281
		c0-0.029-0.003-0.06-0.003-0.089v326.261c-0.026,9.247,6.062,18.508,18.255,25.546l215.657,124.509l0,0l20.147-11.708v-54.468
		l47.016,27.145l20.147-11.708V135L205.236,10.491z"/>
	<path style="fill:#C56A27;" d="M185.088,22.199c-13.044-7.532-34.204-7.527-47.164,0.004c-6.44,3.743-9.664,8.652-9.678,13.568
		v326.261c0.014-4.916,3.238-9.825,9.678-13.568c12.96-7.532,34.119-7.535,47.164-0.004l215.657,124.509v-326.26L185.088,22.199z"/>
	<g>
		<polygon style="fill:#C6C5CB;" points="189.82,45.067 140.367,73.806 140.361,73.801 140.361,373.687 332.936,483.105 
			332.936,483.113 382.395,454.371 382.395,154.485 		"/>
		<polygon style="fill:#D8D8DA;" points="332.936,183.219 332.936,483.105 140.361,373.687 332.936,483.105 140.361,373.687 
			140.361,73.801 		"/>
		<polygon style="fill:#E0E0E2;" points="140.361,73.809 189.82,45.067 382.395,154.485 332.936,183.228 		"/>
		<polygon style="fill:#C6C5CB;" points="332.936,183.228 382.395,154.485 382.395,454.371 332.936,483.113 		"/>
	</g>
	<polygon style="fill:#DC782F;" points="420.892,135 420.892,461.261 400.745,472.97 400.745,146.709 	"/>
	<g>
		<path id="SVGCleanerId_0_1_" style="fill:#E69555;" d="M117.925,61.23c-12.192-7.039-18.281-16.3-18.255-25.547v326.261
			c-0.026,9.247,6.062,18.508,18.255,25.546l215.657,124.509V185.74L117.925,61.23z"/>
	</g>
	<polygon style="fill:#DC782F;" points="353.729,174.032 353.729,500.292 333.582,512 333.582,185.74 	"/>
	<g>
		<path id="SVGCleanerId_1_1_" style="fill:#FFB657;" d="M420.892,135l-20.147,11.708L185.088,22.199
			c-13.044-7.532-34.204-7.527-47.164,0.004s-12.897,19.788,0.147,27.318l215.657,124.509l-20.147,11.708L117.925,61.23
			C93.698,47.243,93.569,24.48,117.64,10.492s63.368-13.988,87.596,0L420.892,135z"/>
	</g>
</g>
<path style="fill:#643A00;" d="M286.223,226.143l-15.798-27.362c-0.775-1.342-1.78-2.356-2.78-2.934
	c-1.023-0.59-2.041-0.724-2.802-0.281l-32.591,18.951c0.02-0.011,0.043-0.013,0.063-0.023c-0.187,0.1-0.365,0.224-0.519,0.393
	l-23.956,26.161c-1.079,1.179-0.891,3.716,0.446,6.033l8.714,15.092c5.129,8.884,5.635,18.381,1.564,22.652l-23.737,13.528
	c-2.889,1.645-6.667,1.12-10.44-1.058c-3.773-2.179-7.542-6.011-10.412-10.982l-8.713-15.093c-0.76-1.316-1.768-2.349-2.785-2.936
	c-0.774-0.447-1.554-0.635-2.232-0.492l0,0l-34.824,7.336c-0.213,0.045-0.406,0.119-0.58,0.22l-32.591,18.951
	c0.017-0.009,0.039-0.013,0.056-0.021c-1.543,0.833-1.627,3.689-0.053,6.418l15.8,27.363c9.185,15.907,21.246,28.174,33.322,35.147
	s24.168,8.652,33.412,3.383l78.627-44.807l32.591-18.951C304.493,292.294,304.591,257.96,286.223,226.143z"/>
<path style="fill:#6FB59D;" d="M92.249,294.299l32.591-18.951c0.174-0.101,0.368-0.176,0.58-0.22l-32.591,18.951
	C92.617,294.122,92.424,294.198,92.249,294.299z"/>
<polygon style="fill:#A66206;" points="92.829,294.078 125.42,275.127 160.244,267.79 127.653,286.741 "/>
<path style="fill:#643A00;" d="M194.827,298.352c-2.889,1.645-6.667,1.12-10.44-1.058c-3.773-2.179-7.542-6.011-10.412-10.982
	l-8.713-15.093c-0.76-1.316-1.768-2.349-2.785-2.936c-0.774-0.447-1.554-0.635-2.232-0.492l-32.591,18.951
	c0.678-0.143,1.458,0.046,2.232,0.493c1.017,0.587,2.025,1.621,2.785,2.936l8.713,15.093c2.87,4.97,6.639,8.803,10.412,10.982
	c3.773,2.179,7.551,2.703,10.44,1.058l54.696-31.172l32.591-18.951L194.827,298.352z"/>
<path style="fill:#884D01;" d="M235.054,214.798c1,0.578,2.006,1.592,2.78,2.934l15.798,27.362
	c18.368,31.818,18.271,66.15-0.217,76.686l-78.627,44.807c-9.244,5.268-21.335,3.589-33.412-3.383s-24.139-19.238-33.322-35.147
	l-15.8-27.362c-1.738-3.011-1.462-6.189,0.577-6.616l34.824-7.336c0.678-0.143,1.458,0.046,2.232,0.493
	c1.017,0.587,2.025,1.621,2.785,2.936l8.713,15.093c2.87,4.971,6.639,8.803,10.412,10.982c3.773,2.179,7.551,2.703,10.44,1.058
	l54.696-31.172c5.776-3.291,5.806-14.019,0.068-23.959l-8.714-15.092c-1.337-2.318-1.526-4.855-0.446-6.033l23.956-26.161
	C232.572,214.037,233.809,214.079,235.054,214.798z"/>
<path style="fill:#A66206;" d="M286.223,226.143l-15.798-27.362c-0.775-1.342-1.78-2.356-2.78-2.934
	c-1.023-0.59-2.041-0.724-2.802-0.281l-32.591,18.951c0.762-0.443,1.779-0.309,2.802,0.281c1,0.578,2.006,1.592,2.78,2.934
	l15.798,27.362c18.368,31.818,18.271,66.15-0.217,76.686l32.591-18.951C304.493,292.294,304.591,257.961,286.223,226.143z"/>
<g>
</g>
<g>
</g>
<g>
</g>
<g>
</g>
<g>
</g>
<g>
</g>
<g>
</g>
<g>
</g>
<g>
</g>
<g>
</g>
<g>
</g>
<g>
</g>
<g>
</g>
<g>
</g>
<g>
</g>
</svg>
